# xmcd CD database file
#
# Track frame offsets:
#	150
#	33550
#	59745
#	78465
#	92355
#	116280
#	140152
#	162797
#	177870
#	199550
#	215827
#	229780
#
# Disc length: 3275 seconds
#
# Revision: 0
# Processed by: cddbd v1.4PL0 Copyright (c) Steve Scherf et al.
# Submitted via: CDex 1.50
#
DISCID=a40cc90c
DTITLE=Various Artist - Salsa Boricua Exitos Origianles
DYEAR=1900
DGENRE=Salsa
TTITLE0=Carino Mio - Lalo Rodriquez
TTITLE1=Como Tu - Eddie Santiago
TTITLE2=Hom. a Ismael Rivera - Camilo Azuquita
TTITLE3=Celos Sin Motivo - Papo Colon y Menique
TTITLE4=Yo Quiero Amarte Una Vez Mas - Papo Colon y Menique
TTITLE5=Lloraras - Johnny and Ray
TTITLE6=Para Aprender a Querer - Willie Rosario
TTITLE7=Quimbara - Imperio Musical
TTITLE8=Dama de Rojo - David Cedeno
TTITLE9=La Piel de tu Piel - Jerry Maisonet
TTITLE10=Buscando Mi Gente - Danny Gonzalez
TTITLE11=Boco Boco - Ray Gonzalez
EXTD=
EXTT0=
EXTT1=
EXTT2=
EXTT3=
EXTT4=
EXTT5=
EXTT6=
EXTT7=
EXTT8=
EXTT9=
EXTT10=
EXTT11=
PLAYORDER=
